<?xml version="1.0" encoding="utf-8"?>
<!-- Generator: Adobe Illustrator 17.0.0, SVG Export Plug-In . SVG Version: 6.00 Build 0)  -->
<!DOCTYPE svg PUBLIC "-//W3C//DTD SVG 1.1//EN" "http://www.w3.org/Graphics/SVG/1.1/DTD/svg11.dtd">
<svg version="1.1" id="TYPE_OUTLINED" xmlns="http://www.w3.org/2000/svg" xmlns:xlink="http://www.w3.org/1999/xlink" x="0px"
	 y="0px" width="653px" height="246px" viewBox="0 0 653 246" enable-background="new 0 0 653 246" xml:space="preserve">
<g id="English">
	<path fill="#FFFFFF" d="M178.897,50.658h5.55v-34.2h-2.9c-0.667,0-1.417,0.059-2.25,0.175c-0.834,0.117-1.675,0.442-2.525,0.975
		c-0.85,0.534-1.667,1.375-2.45,2.525c-0.784,1.15-1.458,2.742-2.025,4.775h-0.55v-9.15h30.4v9.15h-0.55
		c-0.567-2.033-1.242-3.625-2.025-4.775c-0.784-1.15-1.6-1.991-2.45-2.525c-0.85-0.533-1.692-0.858-2.525-0.975
		c-0.833-0.116-1.583-0.175-2.25-0.175h-2.9v34.2h5.55v0.7h-16.1V50.658z"/>
	<path fill="#FFFFFF" d="M203.047,50.658h5.55v-34.2h-5.55v-0.7h16.1v0.7h-5.55v16.35h16.65v-16.35h-5.55v-0.7h16.1v0.7h-5.55v34.2
		h5.55v0.7h-16.1v-0.7h5.55v-17.15h-16.65v17.15h5.55v0.7h-16.1V50.658z"/>
	<path fill="#FFFFFF" d="M241.297,50.658h5.55v-34.2h-5.55v-0.7h28.6v8.65h-0.55c-0.434-1.3-0.9-2.441-1.4-3.425
		c-0.5-0.983-1.1-1.816-1.8-2.5c-0.7-0.683-1.534-1.191-2.5-1.525c-0.967-0.333-2.134-0.5-3.5-0.5h-8.3v15.45h3.25
		c1.1,0,2.033-0.1,2.8-0.3c0.766-0.2,1.425-0.575,1.975-1.125c0.55-0.55,1.016-1.3,1.4-2.25c0.383-0.95,0.758-2.175,1.125-3.675
		h0.55v15.55h-0.55c-0.234-0.966-0.475-1.9-0.725-2.8c-0.25-0.9-0.6-1.7-1.05-2.4c-0.45-0.7-1.05-1.258-1.8-1.675
		c-0.75-0.417-1.725-0.625-2.925-0.625h-4.05v18.05h9.45c1.833,0,3.358-0.391,4.575-1.175c1.216-0.783,2.208-1.716,2.975-2.8
		c0.767-1.083,1.333-2.208,1.7-3.375c0.366-1.167,0.6-2.133,0.7-2.9h0.55v10.95h-30.5V50.658z"/>
	<path fill="#FFFFFF" d="M285.396,50.658h5.55v-34.2h-5.55v-0.7h28.6v8.65h-0.55c-0.434-1.3-0.9-2.441-1.4-3.425
		c-0.5-0.983-1.1-1.816-1.8-2.5c-0.7-0.683-1.534-1.191-2.5-1.525c-0.967-0.333-2.134-0.5-3.5-0.5h-8.3v16.2h3.25
		c1.1,0,2.033-0.1,2.8-0.3c0.766-0.2,1.425-0.575,1.975-1.125c0.55-0.55,1.016-1.3,1.4-2.25c0.383-0.95,0.758-2.175,1.125-3.675
		h0.55v15.55h-0.55c-0.234-0.966-0.475-1.9-0.725-2.8c-0.25-0.9-0.6-1.7-1.05-2.4c-0.45-0.7-1.05-1.258-1.8-1.675
		c-0.75-0.417-1.725-0.625-2.925-0.625h-4.05v17.3h5.55v0.7h-16.1V50.658z"/>
	<path fill="#FFFFFF" d="M315.796,15.758h16.101v0.7h-5.55v24.15c0,2,0.175,3.692,0.525,5.075c0.351,1.383,0.875,2.5,1.575,3.35
		c0.7,0.85,1.566,1.459,2.6,1.825c1.033,0.367,2.217,0.55,3.551,0.55c1.866,0,3.516-0.275,4.949-0.825
		c1.434-0.55,2.667-1.525,3.7-2.925c0.333-0.433,0.625-0.866,0.875-1.3c0.25-0.433,0.467-0.941,0.65-1.525
		c0.183-0.583,0.325-1.283,0.425-2.1c0.1-0.816,0.15-1.825,0.15-3.025v-23.25h-5.551v-0.7h11.851v0.7h-5.55v24.25
		c0,1.4-0.15,2.675-0.45,3.825c-0.3,1.15-0.917,2.342-1.851,3.575c-0.899,1.2-2.149,2.167-3.75,2.9c-1.6,0.733-3.717,1.1-6.35,1.1
		c-4,0-7.059-0.983-9.175-2.95c-2.117-1.966-3.175-4.982-3.175-9.05v-23.65h-5.55V15.758z"/>
	<path fill="#FFFFFF" d="M359.245,50.658h5.551v-34.2h-2.9c-0.667,0-1.417,0.059-2.25,0.175c-0.834,0.117-1.675,0.442-2.525,0.975
		c-0.85,0.534-1.667,1.375-2.449,2.525c-0.784,1.15-1.459,2.742-2.025,4.775h-0.55v-9.15h30.399v9.15h-0.549
		c-0.568-2.033-1.242-3.625-2.025-4.775s-1.6-1.991-2.449-2.525c-0.852-0.533-1.693-0.858-2.525-0.975
		c-0.834-0.116-1.584-0.175-2.25-0.175h-2.9v34.2h5.551v0.7h-16.102V50.658z"/>
	<path fill="#FFFFFF" d="M382.945,15.758h16.101v0.7h-5.551v24.15c0,2,0.176,3.692,0.525,5.075c0.35,1.383,0.875,2.5,1.575,3.35
		c0.7,0.85,1.566,1.459,2.6,1.825c1.033,0.367,2.217,0.55,3.55,0.55c1.867,0,3.517-0.275,4.95-0.825
		c1.433-0.55,2.667-1.525,3.7-2.925c0.333-0.433,0.625-0.866,0.875-1.3c0.25-0.433,0.467-0.941,0.65-1.525
		c0.183-0.583,0.324-1.283,0.425-2.1c0.1-0.816,0.149-1.825,0.149-3.025v-23.25h-5.55v-0.7h11.851v0.7h-5.551v24.25
		c0,1.4-0.149,2.675-0.449,3.825c-0.301,1.15-0.918,2.342-1.851,3.575c-0.899,1.2-2.149,2.167-3.75,2.9
		c-1.6,0.733-3.717,1.1-6.35,1.1c-4,0-7.059-0.983-9.175-2.95c-2.117-1.966-3.176-4.982-3.176-9.05v-23.65h-5.55V15.758z"/>
	<path fill="#FFFFFF" d="M418.845,50.658h5.55v-34.2h-5.55v-0.7h9.5c0.4,0,0.8-0.008,1.2-0.025c0.399-0.017,0.8-0.042,1.2-0.075
		c0.399,0,0.8-0.008,1.199-0.025c0.4-0.016,0.801-0.025,1.2-0.025c1.967,0,3.7,0.108,5.2,0.325s2.9,0.842,4.2,1.875
		c1.166,0.9,1.991,1.917,2.475,3.05c0.483,1.134,0.726,2.2,0.726,3.2c0,0.5-0.093,1.142-0.275,1.925
		c-0.184,0.784-0.584,1.583-1.2,2.4c-0.617,0.817-1.509,1.567-2.675,2.25c-1.167,0.684-2.717,1.142-4.65,1.375v0.1
		c0.533,0.067,1.258,0.192,2.176,0.375c0.916,0.184,1.85,0.492,2.8,0.925c0.95,0.434,1.825,1.009,2.625,1.725
		c0.8,0.717,1.366,1.642,1.7,2.775c0.199,0.667,0.341,1.425,0.425,2.275c0.083,0.85,0.149,1.725,0.2,2.625
		c0.05,0.9,0.1,1.767,0.149,2.6c0.05,0.834,0.142,1.534,0.275,2.1c0.2,0.867,0.517,1.65,0.95,2.35c0.433,0.7,1.133,1.05,2.1,1.05
		c0.433,0,0.883-0.083,1.35-0.25c0.467-0.166,0.883-0.433,1.25-0.8l0.45,0.55c-0.167,0.134-0.358,0.275-0.575,0.425
		s-0.492,0.292-0.824,0.425c-0.334,0.133-0.742,0.242-1.226,0.325c-0.483,0.083-1.075,0.125-1.774,0.125
		c-1.334,0-2.442-0.167-3.325-0.5c-0.884-0.333-1.593-0.825-2.125-1.475c-0.534-0.65-0.925-1.45-1.175-2.4
		c-0.25-0.95-0.426-2.058-0.525-3.325l-0.35-4.55c-0.134-1.667-0.468-2.966-1-3.9c-0.534-0.933-1.159-1.617-1.875-2.05
		c-0.718-0.433-1.459-0.691-2.226-0.775c-0.767-0.083-1.434-0.125-2-0.125h-5v18.05h5.55v0.7h-16.1V50.658z M429.395,31.908h4.601
		c0.933,0,1.782-0.116,2.55-0.35c0.767-0.233,1.425-0.642,1.975-1.225c0.55-0.583,0.976-1.375,1.275-2.375s0.45-2.267,0.45-3.8
		c0-1.732-0.226-3.125-0.676-4.175c-0.449-1.05-1.033-1.841-1.75-2.375c-0.717-0.533-1.517-0.883-2.399-1.05
		c-0.884-0.167-1.759-0.25-2.625-0.25c-0.601,0-1.209,0.008-1.825,0.025c-0.617,0.017-1.143,0.059-1.575,0.125V31.908z"/>
	<path fill="#FFFFFF" d="M452.444,50.658h5.55v-34.2h-5.55v-0.7h28.6v8.65h-0.55c-0.434-1.3-0.899-2.441-1.399-3.425
		c-0.5-0.983-1.101-1.816-1.801-2.5c-0.699-0.683-1.533-1.191-2.5-1.525c-0.967-0.333-2.133-0.5-3.5-0.5h-8.3v15.45h3.25
		c1.101,0,2.033-0.1,2.8-0.3s1.426-0.575,1.976-1.125s1.017-1.3,1.399-2.25s0.758-2.175,1.125-3.675h0.551v15.55h-0.551
		c-0.233-0.966-0.475-1.9-0.725-2.8c-0.25-0.9-0.6-1.7-1.05-2.4c-0.45-0.7-1.05-1.258-1.8-1.675
		c-0.75-0.417-1.726-0.625-2.926-0.625h-4.05v18.05h9.45c1.833,0,3.357-0.391,4.575-1.175c1.216-0.783,2.208-1.716,2.975-2.8
		c0.767-1.083,1.333-2.208,1.7-3.375c0.366-1.167,0.6-2.133,0.7-2.9h0.55v10.95h-30.5V50.658z"/>
	<path fill="#FFFFFF" d="M27.651,145.847h11.988V71.975H27.651v-1.512h20.304c1.007,0,2.015-0.017,3.024-0.054
		c1.007-0.035,2.015-0.089,3.024-0.162c1.008,0,1.998-0.017,2.97-0.054c0.972-0.036,1.961-0.054,2.97-0.054
		c4.104,0,7.901,0.486,11.394,1.458c3.492,0.972,6.516,2.359,9.072,4.158c2.555,1.801,4.553,3.96,5.994,6.48
		c1.439,2.521,2.16,5.329,2.16,8.424c0,3.24-0.829,6.121-2.484,8.64c-1.657,2.521-3.853,4.644-6.588,6.372
		c-2.737,1.728-5.923,3.061-9.558,3.996c-3.637,0.937-7.435,1.404-11.394,1.404c-1.009,0-2.305-0.089-3.888-0.27
		c-1.585-0.179-2.989-0.378-4.212-0.594v35.64h11.988v1.512H27.651V145.847z M50.438,108.694c1.439,0.289,2.952,0.504,4.536,0.648
		c1.583,0.145,2.987,0.216,4.212,0.216c5.328,0,9.485-1.566,12.474-4.698c2.987-3.132,4.482-7.865,4.482-14.202
		c0-3.672-0.361-6.731-1.08-9.18c-0.72-2.447-1.854-4.41-3.402-5.886c-1.549-1.475-3.564-2.501-6.048-3.078
		c-2.484-0.575-5.454-0.864-8.91-0.864c-1.369,0-2.61,0.037-3.726,0.108c-1.117,0.073-1.962,0.145-2.538,0.216V108.694z"/>
	<path fill="#FFFFFF" d="M79.06,145.847h9.504l29.16-77.328h2.592l29.376,77.328h9.612v1.512H126.04v-1.512h11.988l-11.34-30.024
		h-25.056l-11.34,30.024h11.988v1.512H79.06V145.847z M114.16,82.882l-11.88,31.428h23.76L114.16,82.882z"/>
	<path fill="#FFFFFF" d="M165.244,145.847h11.988V71.975h-6.264c-1.441,0-3.061,0.126-4.86,0.378
		c-1.801,0.253-3.618,0.955-5.454,2.106c-1.836,1.152-3.601,2.97-5.292,5.454c-1.692,2.484-3.15,5.923-4.374,10.314H149.8V70.462
		h65.664v19.764h-1.188c-1.225-4.391-2.683-7.83-4.374-10.314c-1.692-2.484-3.456-4.302-5.292-5.454
		c-1.836-1.151-3.655-1.853-5.454-2.106c-1.8-0.251-3.42-0.378-4.86-0.378h-6.264v73.872h11.988v1.512h-34.776V145.847z"/>
	<path fill="#FFFFFF" d="M205.959,145.847h9.504l29.16-77.328h2.592l29.376,77.328h9.612v1.512h-33.264v-1.512h11.988l-11.34-30.024
		h-25.056l-11.34,30.024h11.988v1.512h-23.22V145.847z M241.059,82.882l-11.88,31.428h23.76L241.059,82.882z"/>
	<path fill="#FFFFFF" d="M361.047,119.818h-8.64v24.516h-1.297c-0.793-0.791-1.44-1.331-1.943-1.619
		c-0.505-0.287-1.296-0.433-2.376-0.433c-1.296,0-2.61,0.343-3.942,1.026c-1.333,0.686-2.88,1.458-4.644,2.322
		c-1.766,0.863-3.834,1.638-6.21,2.321s-5.257,1.026-8.641,1.026c-5.113,0-9.649-0.848-13.608-2.538
		c-3.96-1.69-7.776-4.374-11.448-8.046c-3.602-3.6-6.588-7.847-8.964-12.744c-2.376-4.896-3.564-10.403-3.564-16.524
		c0-4.104,0.467-7.793,1.404-11.07c0.935-3.276,2.069-6.138,3.402-8.586c1.332-2.447,2.7-4.499,4.104-6.156
		c1.404-1.655,2.573-2.952,3.51-3.888c3.24-3.24,6.948-5.867,11.124-7.884c4.175-2.015,8.927-3.024,14.256-3.024
		c2.735,0,4.985,0.216,6.75,0.648c1.763,0.432,3.294,0.918,4.59,1.458s2.465,1.026,3.51,1.458c1.043,0.432,2.214,0.648,3.51,0.648
		c1.439,0,2.466-0.197,3.078-0.594c0.611-0.395,1.205-0.953,1.782-1.674h1.62v21.6h-1.188c-0.288-1.872-0.847-4.067-1.674-6.588
		c-0.828-2.52-2.125-4.931-3.888-7.236c-1.766-2.303-4.104-4.248-7.021-5.832c-2.916-1.583-6.642-2.376-11.178-2.376
		c-5.4,0-9.738,1.134-13.014,3.402c-3.277,2.268-5.832,5.256-7.668,8.964c-1.836,3.709-3.062,7.902-3.672,12.582
		c-0.612,4.681-0.918,9.396-0.918,14.148c0,3.24,0.144,6.48,0.432,9.72c0.287,3.24,0.773,6.301,1.458,9.18
		c0.684,2.881,1.637,5.545,2.862,7.992c1.224,2.448,2.808,4.536,4.752,6.264c2.16,1.944,4.391,3.294,6.696,4.05
		c2.303,0.757,5.292,1.135,8.964,1.135c2.231,0,4.464-0.378,6.696-1.135c2.23-0.756,4.229-1.89,5.994-3.401
		c1.764-1.512,3.203-3.438,4.32-5.778c1.115-2.339,1.674-5.093,1.674-8.262v-9.072h-13.933v-1.512h32.94V119.818z"/>
	<path fill="#FFFFFF" d="M365.366,108.802c0-5.759,1.134-11.087,3.402-15.984c2.268-4.896,5.184-9.143,8.748-12.744
		c3.563-3.599,7.577-6.426,12.042-8.478c4.463-2.052,8.927-3.078,13.392-3.078c4.752,0,9.378,1.026,13.878,3.078
		c4.499,2.052,8.514,4.879,12.042,8.478c3.527,3.601,6.354,7.849,8.479,12.744c2.123,4.897,3.186,10.225,3.186,15.984
		c0,5.041-0.972,9.973-2.916,14.796c-1.943,4.824-4.608,9.109-7.992,12.852c-3.385,3.745-7.362,6.769-11.934,9.072
		c-4.573,2.304-9.487,3.456-14.742,3.456c-5.399,0-10.405-1.117-15.012-3.348c-4.608-2.231-8.586-5.201-11.934-8.91
		c-3.349-3.707-5.959-7.992-7.83-12.853C366.301,119.008,365.366,113.986,365.366,108.802z M377.786,108.802
		c0,6.48,0.433,12.133,1.296,16.957c0.864,4.824,2.304,8.855,4.32,12.096c2.015,3.24,4.607,5.653,7.776,7.236
		c3.167,1.584,7.091,2.376,11.771,2.376c4.607,0,8.514-0.792,11.719-2.376c3.202-1.583,5.812-3.996,7.829-7.236
		c2.016-3.24,3.456-7.271,4.32-12.096c0.864-4.823,1.296-10.477,1.296-16.957c0-4.968-0.324-9.774-0.972-14.418
		c-0.648-4.644-1.89-8.783-3.727-12.42c-1.836-3.635-4.393-6.534-7.668-8.694c-3.276-2.16-7.543-3.24-12.798-3.24
		c-5.256,0-9.522,1.08-12.798,3.24c-3.277,2.16-5.832,5.059-7.668,8.694c-1.836,3.637-3.078,7.776-3.726,12.42
		C378.11,99.028,377.786,103.834,377.786,108.802z"/>
	<path fill="#FFFFFF" d="M444.744,145.847h11.988V71.975h-11.988v-1.512h23.112l36.504,58.86h0.216V71.975h-11.987v-1.512h25.596
		v1.512h-11.988v76.896h-2.16l-45.468-72.468h-0.216v69.444h11.988v1.512h-25.597V145.847z"/>
	<path fill="#FFFFFF" d="M518.616,145.847h11.987V71.975h-11.987v-1.512h34.775v1.512h-11.988v73.872h11.988v1.512h-34.775V145.847z
		"/>
	<path fill="#FFFFFF" d="M551.445,145.847h9.505l29.159-77.328h2.593l29.376,77.328h9.611v1.512h-33.264v-1.512h11.988
		l-11.341-30.024h-25.056l-11.34,30.024h11.988v1.512h-23.221V145.847z M586.546,82.882l-11.88,31.428h23.76L586.546,82.882z"/>
	<path fill="#FFFFFF" d="M22.782,224.252h8.769v-54.035h-8.769v-1.106h16.906l26.702,43.055h0.158v-41.948h-8.769v-1.106h18.723
		v1.106h-8.769v56.248h-1.58l-33.259-53.01h-0.158v50.797h8.769v1.106H22.782V224.252z"/>
	<path fill="#FFFFFF" d="M69.786,224.252h6.952l21.33-56.563h1.896l21.488,56.563h7.031v1.106h-24.332v-1.106h8.769l-8.295-21.962
		H86.297l-8.295,21.962h8.769v1.106H69.786V224.252z M95.461,178.195l-8.69,22.989h17.38L95.461,178.195z"/>
	<path fill="#FFFFFF" d="M132.828,224.252h8.769v-54.035h-4.582c-1.054,0-2.239,0.092-3.555,0.276
		c-1.317,0.185-2.646,0.698-3.99,1.54c-1.343,0.844-2.634,2.173-3.871,3.989c-1.238,1.817-2.304,4.333-3.199,7.545h-0.869V169.11
		h48.032v14.457h-0.869c-0.896-3.212-1.963-5.728-3.2-7.545c-1.238-1.816-2.528-3.146-3.871-3.989
		c-1.343-0.842-2.674-1.355-3.99-1.54c-1.317-0.185-2.502-0.276-3.555-0.276h-4.582v54.035h8.769v1.106h-25.438V224.252z"/>
	<path fill="#FFFFFF" d="M171.221,224.252h8.769v-54.035h-8.769v-1.106h25.438v1.106h-8.769v54.035h8.769v1.106h-25.438V224.252z"/>
	<path fill="#FFFFFF" d="M200.688,197.155c0-4.213,0.83-8.109,2.488-11.691c1.659-3.581,3.792-6.688,6.399-9.322
		c2.607-2.633,5.542-4.701,8.809-6.202c3.265-1.501,6.53-2.251,9.796-2.251c3.476,0,6.86,0.75,10.152,2.251
		c3.291,1.501,6.228,3.569,8.809,6.202c2.58,2.634,4.647,5.741,6.201,9.322c1.553,3.582,2.331,7.479,2.331,11.691
		c0,3.688-0.711,7.295-2.133,10.823c-1.422,3.529-3.371,6.663-5.846,9.401c-2.476,2.738-5.386,4.95-8.729,6.636
		c-3.345,1.685-6.939,2.527-10.784,2.527c-3.95,0-7.611-0.816-10.981-2.448c-3.371-1.632-6.28-3.805-8.729-6.518
		c-2.449-2.712-4.358-5.847-5.728-9.401C201.371,204.621,200.688,200.947,200.688,197.155z M209.772,197.155
		c0,4.74,0.316,8.875,0.948,12.403c0.632,3.529,1.685,6.478,3.16,8.848c1.474,2.37,3.37,4.136,5.688,5.293
		c2.317,1.159,5.187,1.738,8.611,1.738c3.37,0,6.228-0.579,8.572-1.738c2.343-1.157,4.252-2.923,5.728-5.293
		c1.474-2.37,2.528-5.318,3.16-8.848c0.632-3.528,0.948-7.663,0.948-12.403c0-3.634-0.237-7.149-0.711-10.546
		c-0.474-3.397-1.382-6.426-2.726-9.086c-1.343-2.658-3.213-4.779-5.609-6.359c-2.397-1.58-5.518-2.37-9.362-2.37
		c-3.845,0-6.965,0.79-9.361,2.37c-2.397,1.58-4.266,3.701-5.609,6.359c-1.343,2.66-2.251,5.688-2.726,9.086
		C210.009,190.006,209.772,193.521,209.772,197.155z"/>
	<path fill="#FFFFFF" d="M258.751,224.252h8.769v-54.035h-8.769v-1.106h16.906l26.702,43.055h0.158v-41.948h-8.769v-1.106h18.723
		v1.106h-8.769v56.248h-1.58l-33.259-53.01h-0.158v50.797h8.769v1.106h-18.723V224.252z"/>
	<path fill="#FFFFFF" d="M305.755,224.252h6.952l21.33-56.563h1.896l21.487,56.563h7.031v1.106H340.12v-1.106h8.77l-8.296-21.962
		h-18.328l-8.295,21.962h8.769v1.106h-16.985V224.252z M331.431,178.195l-8.691,22.989h17.38L331.431,178.195z"/>
	<path fill="#FFFFFF" d="M362.794,224.252h8.77v-54.035h-8.77v-1.106h25.438v1.106h-8.768v54.035h14.061
		c4.635,0,8.27-1.447,10.902-4.345c2.633-2.896,4.555-6.846,5.768-11.85h0.869v17.301h-48.27V224.252z"/>
	<path fill="#FFFFFF" d="M430.972,224.252h8.769v-54.035h-8.769v-1.106h14.852c0.737,0,1.475-0.013,2.212-0.039
		s1.475-0.065,2.213-0.119c0.736,0,1.461-0.012,2.172-0.039c0.711-0.026,1.435-0.04,2.173-0.04c3.002,0,5.779,0.355,8.334,1.066
		c2.555,0.712,4.767,1.727,6.637,3.042c1.868,1.317,3.33,2.897,4.384,4.74c1.053,1.844,1.58,3.897,1.58,6.162
		c0,2.369-0.605,4.477-1.816,6.319c-1.213,1.845-2.818,3.397-4.819,4.661c-2.002,1.264-4.333,2.239-6.991,2.923
		c-2.66,0.686-5.439,1.027-8.335,1.027c-0.738,0-1.686-0.065-2.844-0.197c-1.159-0.131-2.187-0.276-3.081-0.435v26.069h8.769v1.106
		h-25.438V224.252z M447.641,197.076c1.053,0.211,2.159,0.369,3.318,0.475c1.157,0.105,2.185,0.157,3.081,0.157
		c3.896,0,6.938-1.146,9.124-3.437c2.185-2.291,3.278-5.753,3.278-10.388c0-2.687-0.264-4.924-0.79-6.716
		c-0.527-1.789-1.356-3.225-2.488-4.305c-1.133-1.079-2.607-1.83-4.424-2.252c-1.817-0.421-3.989-0.632-6.518-0.632
		c-1.001,0-1.91,0.027-2.726,0.079c-0.817,0.053-1.436,0.106-1.856,0.158V197.076z"/>
	<path fill="#FFFFFF" d="M468.575,224.252h6.952l21.33-56.563h1.896l21.488,56.563h7.031v1.106H502.94v-1.106h8.769l-8.295-21.962
		h-18.328l-8.295,21.962h8.77v1.106h-16.985V224.252z M494.25,178.195l-8.689,22.989h17.38L494.25,178.195z"/>
	<path fill="#FFFFFF" d="M525.613,224.252h8.769v-54.035h-8.769v-1.106h15.01c0.632,0,1.264-0.013,1.896-0.039
		c0.632-0.026,1.264-0.065,1.896-0.119c0.632,0,1.264-0.012,1.896-0.039c0.632-0.026,1.264-0.04,1.896-0.04
		c3.107,0,5.846,0.172,8.216,0.514c2.37,0.344,4.582,1.331,6.637,2.963c1.843,1.422,3.146,3.029,3.91,4.818
		c0.763,1.792,1.146,3.477,1.146,5.057c0,0.79-0.146,1.805-0.435,3.041c-0.29,1.238-0.922,2.502-1.896,3.792
		c-0.975,1.291-2.383,2.477-4.226,3.556c-1.845,1.08-4.294,1.805-7.348,2.172v0.158c0.842,0.106,1.987,0.304,3.437,0.593
		c1.448,0.29,2.923,0.777,4.424,1.461c1.501,0.686,2.884,1.594,4.147,2.726c1.265,1.134,2.159,2.595,2.687,4.385
		c0.315,1.054,0.539,2.252,0.672,3.595c0.13,1.343,0.236,2.726,0.315,4.147s0.158,2.792,0.237,4.107
		c0.079,1.317,0.224,2.424,0.435,3.318c0.315,1.37,0.815,2.607,1.501,3.713c0.684,1.106,1.79,1.659,3.317,1.659
		c0.685,0,1.396-0.131,2.134-0.396c0.736-0.263,1.395-0.684,1.975-1.264l0.711,0.869c-0.264,0.211-0.566,0.435-0.908,0.672
		c-0.344,0.236-0.778,0.461-1.304,0.671c-0.527,0.21-1.173,0.382-1.936,0.514c-0.764,0.131-1.698,0.197-2.805,0.197
		c-2.106,0-3.858-0.264-5.253-0.79c-1.396-0.525-2.516-1.303-3.357-2.33c-0.844-1.027-1.462-2.291-1.857-3.792
		c-0.395-1.501-0.671-3.252-0.829-5.254l-0.553-7.188c-0.211-2.633-0.738-4.688-1.58-6.162c-0.843-1.474-1.831-2.554-2.963-3.239
		c-1.133-0.684-2.305-1.093-3.516-1.225c-1.212-0.131-2.265-0.197-3.159-0.197h-7.9v28.519h8.769v1.106h-25.438V224.252z
		 M542.282,194.627h7.268c1.475,0,2.817-0.184,4.029-0.553c1.211-0.367,2.252-1.014,3.12-1.936c0.869-0.921,1.541-2.172,2.015-3.752
		c0.475-1.58,0.711-3.581,0.711-6.004c0-2.738-0.355-4.938-1.066-6.597s-1.633-2.909-2.765-3.753
		c-1.133-0.842-2.397-1.395-3.792-1.659c-1.396-0.263-2.778-0.395-4.147-0.395c-0.948,0-1.91,0.014-2.884,0.039
		c-0.975,0.027-1.805,0.093-2.488,0.198V194.627z"/>
	<path fill="#FFFFFF" d="M578.7,224.252h8.769v-54.035H578.7v-1.106h24.806v1.106h-8.137v25.122h0.79l23.857-25.122h-8.216v-1.106
		h16.354v1.106h-6.558l-20.065,21.251l28.677,32.784h5.214v1.106h-22.831v-1.106h7.11l-23.7-27.808h-0.632v27.808h8.137v1.106H578.7
		V224.252z"/>
</g>
</svg>
